<svg width="40" height="41" viewBox="0 0 40 41" fill="none" xmlns="http://www.w3.org/2000/svg">
<path d="M7.98209 40V41H8.39668L8.68965 40.7066L7.98209 40ZM40 7.94039L40.7076 8.64703L41.4156 7.93807L40.7053 7.23143L40 7.94039ZM32.0179 0L32.7232 -0.708956L32.0156 -1.41282L31.3103 -0.706647L32.0179 0ZM0 32.0596L-0.707567 31.353L-1 31.6458V32.0596H0ZM0 40H-1V41H0V40ZM25.1076 7.83425L32.5341 15.222L33.9446 13.8041L26.5181 6.41634L25.1076 7.83425ZM8.68965 40.7066L40.7076 8.64703L39.2924 7.23374L7.27452 39.2934L8.68965 40.7066ZM40.7053 7.23143L32.7232 -0.708956L31.3127 0.708956L39.2947 8.64934L40.7053 7.23143ZM31.3103 -0.706647L-0.707567 31.353L0.707567 32.7663L32.7255 0.706647L31.3103 -0.706647ZM-1 32.0596V40H1V32.0596H-1ZM0 41H7.98209V39H0V41ZM16.55 41H39.4789V39H16.55V41Z" fill="white"/>
</svg>
